<?xml version="1.0" encoding="UTF-8"?>
<svg id="Layer_2" data-name="Layer 2" xmlns="http://www.w3.org/2000/svg" viewBox="0 0 128.13 94.66">
  <defs>
    <style>
      .cls-1 {
        fill: #9f3;
      }
    </style>
  </defs>
  <g id="W_light_grreen" data-name="W light grreen">
    <g>
      <path class="cls-1" d="M114.8,54.53l-3.73,3.05-3.59,4.83-2.7.21-4.71,5.51-3.43.93-5.73,4.97-5.68,1.2-4.01,4.4-5.75,2.49s-.96.91-2.08,1.99c1.43,5.23,2.56,9.33,2.95,10.55h27.56c.17,0,2.32-7.86,2.32-7.86l-6.23-8.43,8,4,6.8-27.84Z"/>
      <path class="cls-1" d="M108.16,14.52l-4.29,6.35-5.65,2.69-1.6,1.18c-1.23,5.16-2.48,10.4-3.56,14.93l2.23-.16,1.54.57,1.18-3.19,4.44-4.46,2.03-1.72s4.3-2.2,5.07-1.92c.77.28,3.09-.34,3.09-.34l5.49-5.88-2.92,9.63-2.43,4.05-5.15,2.6-3.75,3.9-3.8,6.38-2.38.89-4.21,6.56-5.49.94-3.57,4.57s-5.42,1.33-5.5,1.55c-.08.22-3.66,5.07-3.66,5.07l-5.89.46h-.01c.72,2.68,1.45,5.42,2.17,8.07l5.22-3.78,3.95-2.5,2.76-1.18,3.69-1.16,2.42-3.39s2.71-.1,3.12.05c.41.15,1.68-.15,1.68-.15l1.53-4.16s2.99-.54,3.3-.43c.31.11,2.09-1.87,2.77-1.83.69.03,1.37-1.22,1.37-1.22,0,0,4.27-4.27,4.75-4.32.46-.04,3.86-1.78,4.07-1.89h0s5.82-9.93,5.82-9.93l-.3,1.29L128.13,0h-25.63s-1.48,6.22-3.41,14.37l9.08.15Z"/>
      <path class="cls-1" d="M48.51,91.05l3.47-2.78,3.58-.87.23-.09,3.22-13.8-4.95,6.14-4.94-.18-5.01,1.28-6.4,1.26,3.5-7.11,7.23-1.61,1.41-1.46,1.93-5.22,4.38-.52,1.29-3.48,2.67-2.97,2.18-.19,2.09-8.94s.96,3.62,2.35,8.8l1.69-2.54,3.67-2.6,2.15.79,3-4.33s2.99-.05,3.75.23,1.98-1.58,1.98-1.58l3.17-5.75,1.9.7c-.88-3.58-1.97-7.96-3.11-12.56l-2.01-.04-4.51,5.75-3.45,1.31-2.43-.2-13.82,7.49-1.68,4.54-3.53.73-3.14,4.72-6.64,1.91-6.09,4.84c-.12.13-.2.23-.24.26.08-.07.16-.16.24-.26,1.08-1.37,2.76-5.52,2.76-5.52,0,0,0,0,0,0,.23-.33,10.47-14.61,12.83-15.85,2.39-1.26,7.21-7.72,10.77-8.38,3.56-.66,5.02-1.77,5.95-2.41.94-.64,2.76-2.28,4.52-3.27,1.63-.92,7.44-3.83,8.29-4.26-2.99-12-5.76-23.03-5.76-23.03h-24.34l-5.66,27.37,7,6-8.81.37-5.15,22.67L27.16,0,0,.37s4.14,14.31,5,18l11-3-9,9,19.51,70.29h27.56l.93-3.99-6.5.38Z"/>
    </g>
  </g>
</svg>